<?xml version="1.0" encoding="UTF-8"?>
<svg version="1.1" xmlns="http://www.w3.org/2000/svg" width="279" height="206">
<path d="M0 0 C14.52 0 29.04 0 44 0 C44 1.65 44 3.3 44 5 C40.37 5 36.74 5 33 5 C38.19908735 14.45416697 43.61635601 23.76007132 49.1875 33 C54.14128897 41.21711215 59.05073371 49.4561225 63.875 57.75 C64.4412207 58.72332275 65.00744141 59.69664551 65.59082031 60.69946289 C66.77017619 62.72744797 67.94937191 64.75552619 69.12841797 66.78369141 C72.55576045 72.67357007 75.99399973 78.5570551 79.4375 84.4375 C79.79183105 85.04259399 80.14616211 85.64768799 80.51123047 86.27111816 C87.4406837 98.0974798 94.47383885 109.85984393 101.55224609 121.59765625 C102.03000488 122.39042969 102.50776367 123.18320313 103 124 C103.8345874 125.32837891 103.8345874 125.32837891 104.68603516 126.68359375 C106 129 106 129 106 131 C109.63 131 113.26 131 117 131 C117 132.65 117 134.3 117 136 C102.48 136 87.96 136 73 136 C73 134.35 73 132.7 73 131 C77.29 130.67 81.58 130.34 86 130 C85.09121094 128.49695313 84.18242187 126.99390625 83.24609375 125.4453125 C75.93643861 113.32576867 68.74332765 101.15360859 61.69897461 88.87744141 C57.19805353 81.04533675 52.61902621 73.26296573 48 65.5 C42.81106566 56.77141651 37.65452675 48.02576825 32.56811523 39.23706055 C31.58293564 37.53529972 30.59520537 35.83501634 29.60742188 34.13476562 C29.01638672 33.11060547 28.42535156 32.08644531 27.81640625 31.03125 C27.03438843 29.67870117 27.03438843 29.67870117 26.23657227 28.29882812 C25 26 25 26 24 23 C23.34 23 22.68 23 22 23 C21.61497314 24.04051514 21.61497314 24.04051514 21.22216797 25.10205078 C19.85155479 28.35198655 18.20476501 31.30993207 16.4453125 34.3671875 C16.10249237 34.96500031 15.75967224 35.56281311 15.40646362 36.17874146 C14.31568509 38.07926201 13.22044325 39.97716509 12.125 41.875 C11.39683495 43.14175442 10.66896761 44.40868001 9.94140625 45.67578125 C8.59314977 48.02304636 7.2428495 50.369088 5.89111328 52.71435547 C3.92014849 56.13873504 1.96028743 59.569497 0 63 C19.305 63.495 19.305 63.495 39 64 C39 66.97 39 69.94 39 73 C23.82 73 8.64 73 -7 73 C-7.66 74.65 -8.32 76.3 -9 78 C-9.8901355 79.64904171 -10.81440934 81.27995126 -11.765625 82.89453125 C-12.31959961 83.83917236 -12.87357422 84.78381348 -13.44433594 85.75708008 C-14.04020508 86.76536865 -14.63607422 87.77365723 -15.25 88.8125 C-16.51055339 90.95825302 -17.77096572 93.10408891 -19.03125 95.25 C-19.68222656 96.35601562 -20.33320313 97.46203125 -21.00390625 98.6015625 C-23.0003139 102.00053442 -24.98644317 105.40528747 -26.96875 108.8125 C-27.60264648 109.90199951 -28.23654297 110.99149902 -28.88964844 112.11401367 C-30.11197627 114.21555132 -31.3339911 116.31727105 -32.55566406 118.41918945 C-33.10963867 119.37011475 -33.66361328 120.32104004 -34.234375 121.30078125 C-34.72131836 122.13778564 -35.20826172 122.97479004 -35.70996094 123.8371582 C-36.75530981 125.58975957 -37.86803563 127.30205345 -39 129 C-35.04 129.33 -31.08 129.66 -27 130 C-27 131.65 -27 133.3 -27 135 C-41.52 135 -56.04 135 -71 135 C-71 133.35 -71 131.7 -71 130 C-67.04 130 -63.08 130 -59 130 C-58.34 128.35 -57.68 126.7 -57 125 C-55.974849 123.08344321 -54.91556831 121.1849447 -53.83203125 119.30078125 C-53.19378418 118.18735352 -52.55553711 117.07392578 -51.89794922 115.92675781 C-51.20289367 114.72195086 -50.5077414 113.51719971 -49.8125 112.3125 C-49.09105251 111.05711328 -48.36986506 109.80157708 -47.64892578 108.54589844 C-45.7949706 105.31879708 -43.93698535 102.09403586 -42.07781982 98.86993408 C-41.05233129 97.09079075 -40.02805128 95.31095951 -39.00439453 93.53076172 C-31.80693207 81.01399666 -24.56697853 68.52273361 -17.2800293 56.05786133 C-12.88549467 48.53509805 -8.53241822 40.98900595 -4.1875 33.4375 C1.11108696 24.23150293 6.47571519 15.07240269 12 6 C8.04 5.67 4.08 5.34 0 5 C0 3.35 0 1.7 0 0 Z " fill="#FFFFFF" transform="translate(162,70)"/>
<path d="M0 0 C14.19 0 28.38 0 43 0 C43.495 2.475 43.495 2.475 44 5 C42.82679199 4.91032959 42.82679199 4.91032959 41.62988281 4.81884766 C35.13964137 4.72943913 35.13964137 4.72943913 29.86132812 8.08496094 C27.93954479 11.10261069 26.32535294 14.16266888 24.75 17.375 C23.81604291 19.13397922 22.88197023 20.89290552 21.94206238 22.64871216 C21.29113111 23.87082073 20.64602701 25.09604942 20.00654602 26.32418823 C16.67030949 32.72910075 12.98277544 38.90884999 9.25915527 45.09405518 C7.55287951 47.92965265 5.85975587 50.77291844 4.16796875 53.6171875 C3.60360107 54.56190918 3.0392334 55.50663086 2.45776367 56.47998047 C1.22594384 58.60941345 0.10016953 60.79966095 -1 63 C16.82 63.33 34.64 63.66 53 64 C53 66.97 53 69.94 53 73 C32.87 73 12.74 73 -8 73 C-8.66 74.65 -9.32 76.3 -10 78 C-10.8901355 79.64904171 -11.81440934 81.27995126 -12.765625 82.89453125 C-13.31959961 83.83917236 -13.87357422 84.78381348 -14.44433594 85.75708008 C-15.04020508 86.76536865 -15.63607422 87.77365723 -16.25 88.8125 C-17.51055339 90.95825302 -18.77096572 93.10408891 -20.03125 95.25 C-20.68222656 96.35601562 -21.33320312 97.46203125 -22.00390625 98.6015625 C-24.0003139 102.00053442 -25.98644317 105.40528747 -27.96875 108.8125 C-28.60264648 109.90199951 -29.23654297 110.99149902 -29.88964844 112.11401367 C-31.11197627 114.21555132 -32.3339911 116.31727105 -33.55566406 118.41918945 C-34.10963867 119.37011475 -34.66361328 120.32104004 -35.234375 121.30078125 C-35.72131836 122.13778564 -36.20826172 122.97479004 -36.70996094 123.8371582 C-37.75530981 125.58975957 -38.86803563 127.30205345 -40 129 C-35.71 129.33 -31.42 129.66 -27 130 C-27.33 131.65 -27.66 133.3 -28 135 C-42.19 135 -56.38 135 -71 135 C-71 133.35 -71 131.7 -71 130 C-67.37 130 -63.74 130 -60 130 C-59.34 128.35 -58.68 126.7 -58 125 C-56.974849 123.08344321 -55.91556831 121.1849447 -54.83203125 119.30078125 C-54.19378418 118.18735352 -53.55553711 117.07392578 -52.89794922 115.92675781 C-52.20289367 114.72195086 -51.5077414 113.51719971 -50.8125 112.3125 C-50.09105251 111.05711328 -49.36986506 109.80157708 -48.64892578 108.54589844 C-46.7949706 105.31879708 -44.93698535 102.09403586 -43.07781982 98.86993408 C-42.05233129 97.09079075 -41.02805128 95.31095951 -40.00439453 93.53076172 C-32.80693207 81.01399666 -25.56697853 68.52273361 -18.2800293 56.05786133 C-13.88549467 48.53509805 -9.53241822 40.98900595 -5.1875 33.4375 C0.11108696 24.23150293 5.47571519 15.07240269 11 6 C7.37 5.67 3.74 5.34 0 5 C0 3.35 0 1.7 0 0 Z " fill="#FFFFFF" transform="translate(71,70)"/>
<path d="M0 0 C2.9669835 1.54351743 5.21138174 3.74727046 7.58984375 6.0546875 C11.46024125 9.71164396 15.36794676 13.22234042 19.52734375 16.5546875 C23.50363801 19.75400472 27.29402673 23.08053695 31.02734375 26.5546875 C35.633898 30.84104361 40.39861648 34.85220761 45.30078125 38.80078125 C49.13345549 41.96905208 52.7843823 45.31874329 56.43359375 48.6953125 C59.41770326 51.40977356 62.51074869 53.96930707 65.6640625 56.484375 C67.02734375 58.0546875 67.02734375 58.0546875 67.02734375 62.0546875 C62.11918489 62.0546875 60.74331598 60.35307526 57.46484375 57.1171875 C56.39424879 56.09651751 55.3212856 55.07832641 54.24609375 54.0625 C53.70726562 53.55235352 53.1684375 53.04220703 52.61328125 52.51660156 C50.31631616 50.39926367 47.90158681 48.44578323 45.46484375 46.4921875 C40.72533553 42.67746137 36.24835378 38.63899318 31.7734375 34.51953125 C29.10859209 32.12761453 26.3790255 29.86213866 23.58984375 27.6171875 C19.50016067 24.32320814 15.61474763 20.88346416 11.77734375 17.3046875 C7.72892621 13.53057408 3.65332539 10.10362994 -0.97265625 7.0546875 C-6.62057648 11.57739345 -12.14907731 16.15361482 -17.47265625 21.0546875 C-21.94250745 25.16847659 -26.56310518 29.02556047 -31.2890625 32.83984375 C-33.91974182 35.01101577 -36.45208049 37.25710107 -38.97265625 39.5546875 C-43.26182665 43.46380482 -47.70703498 47.13015216 -52.22265625 50.7734375 C-55.8966201 53.82115751 -59.39285247 57.04500085 -62.87890625 60.3046875 C-64.97265625 62.0546875 -64.97265625 62.0546875 -67.97265625 63.0546875 C-68.63265625 62.3946875 -69.29265625 61.7346875 -69.97265625 61.0546875 C-69.97265625 60.0646875 -69.97265625 59.0746875 -69.97265625 58.0546875 C-67.953125 56.14453125 -67.953125 56.14453125 -65.16015625 53.9921875 C-63.72682306 52.8815094 -62.29756378 51.76434422 -60.90698242 50.60058594 C-58.97265625 49.0546875 -58.97265625 49.0546875 -56.1730957 47.18847656 C-51.49804819 43.70179499 -47.95940699 40.69728903 -46.99536133 34.7800293 C-46.53872519 29.82648851 -46.6503047 24.89600973 -46.78515625 19.9296875 C-46.79212616 18.19272122 -46.79412087 16.45572749 -46.79101562 14.71875 C-46.79418016 10.49489556 -46.8647237 6.27711072 -46.97265625 2.0546875 C-42.68265625 2.0546875 -38.39265625 2.0546875 -33.97265625 2.0546875 C-33.97265625 10.3046875 -33.97265625 18.5546875 -33.97265625 27.0546875 C-28.52709689 22.6563511 -23.14502659 18.2696939 -17.97265625 13.5546875 C-14.38066578 10.30697727 -10.77520944 7.08048241 -7.09765625 3.9296875 C-6.21335938 3.16398438 -5.3290625 2.39828125 -4.41796875 1.609375 C-1.97265625 0.0546875 -1.97265625 0.0546875 0 0 Z " fill="#FFFFFF" transform="translate(138.97265625,-0.0546875)"/>
<path d="M0 0 C6.27 0 12.54 0 19 0 C19 5.94 19 11.88 19 18 C12.73 18 6.46 18 0 18 C0 12.06 0 6.12 0 0 Z " fill="#FFFFFF" transform="translate(129,31)"/>
</svg>
